<svg width="24" height="24" viewBox="0 0 24 24" fill="none" xmlns="http://www.w3.org/2000/svg">
<path fill-rule="evenodd" clip-rule="evenodd" d="M23.9279 7.21048C23.8694 5.97391 23.6666 5.12943 23.3699 4.3906C23.0687 3.61544 22.5963 2.91331 21.9858 2.33295C21.3865 1.74196 20.6611 1.28445 19.8604 0.992675C19.097 0.705688 18.2249 0.509459 16.9475 0.453268C15.6678 0.396544 15.2589 0.383072 12 0.383072C8.74109 0.383072 8.33221 0.396544 7.05249 0.452913C5.77515 0.509459 4.90302 0.705865 4.13965 0.993029C3.33893 1.28462 2.61365 1.74196 2.01416 2.33295C1.40369 2.91313 0.931091 3.61526 0.6297 4.39043C0.333252 5.12943 0.130554 5.97391 0.0725098 7.21031C0.013916 8.44937 0 8.84501 0 11.9999C0 15.155 0.013916 15.5508 0.0725098 16.7897C0.130737 18.0261 0.333618 18.8706 0.630249 19.6096C0.931458 20.3846 1.40387 21.0869 2.01434 21.6671C2.61365 22.2581 3.33911 22.7154 4.13983 23.007C4.90302 23.2943 5.77533 23.4906 7.05267 23.5471C8.33258 23.6036 8.74127 23.6169 12.0002 23.6169C15.2591 23.6169 15.668 23.6036 16.9477 23.5471C18.225 23.4906 19.0972 23.2943 19.8605 23.007C21.4724 22.4036 22.7466 21.17 23.3699 19.6096C23.6667 18.8706 23.8694 18.0261 23.9279 16.7897C23.9861 15.5506 24 15.155 24 12.0001C24 8.84501 23.9861 8.44937 23.9279 7.21048ZM21.7678 16.6945C21.7145 17.8272 21.5189 18.4423 21.3547 18.8516C20.9509 19.8648 20.1238 20.6655 19.0772 21.0564C18.6544 21.2154 18.019 21.4047 16.849 21.4563C15.5839 21.5123 15.2043 21.524 12 21.524C8.79547 21.524 8.41608 21.5123 7.15082 21.4563C5.98096 21.4047 5.34558 21.2154 4.92261 21.0564C4.40149 20.8701 3.92999 20.5732 3.54291 20.1873C3.14429 19.8125 2.83759 19.3563 2.64514 18.8516C2.4809 18.4423 2.28534 17.8272 2.23206 16.6945C2.17438 15.4696 2.16211 15.1022 2.16211 12.0003C2.16211 8.89819 2.17438 8.53091 2.23206 7.30585C2.28552 6.17315 2.4809 5.55805 2.64514 5.14875C2.83759 4.64409 3.14447 4.18764 3.54291 3.81291C3.92999 3.42701 4.40149 3.1301 4.92279 2.94397C5.34558 2.78479 5.98096 2.59565 7.151 2.54389C8.41626 2.48805 8.79584 2.47618 12 2.47618C15.204 2.47618 15.5836 2.48806 16.849 2.54407C18.019 2.59565 18.6542 2.78497 19.0772 2.94397C19.5983 3.13027 20.0698 3.42719 20.4569 3.81291C20.8555 4.18764 21.1622 4.64409 21.3545 5.14875C21.5189 5.55805 21.7145 6.17315 21.7678 7.30585C21.8254 8.53073 21.8377 8.89819 21.8377 12.0001C21.8377 15.1022 21.8256 15.4695 21.7678 16.6945ZM11.9998 6.03453C8.59662 6.03453 5.83777 8.70551 5.83777 12.0001C5.83777 15.2947 8.59662 17.9655 11.9998 17.9655C15.4032 17.9655 18.162 15.2947 18.162 12.0001C18.162 8.70551 15.4032 6.03453 11.9998 6.03453ZM11.9998 15.8724C9.79083 15.8722 7.99988 14.1386 8.00006 11.9999C8.00006 9.86143 9.79083 8.12764 12 8.12764C14.2092 8.12781 15.9999 9.86143 15.9999 11.9999C15.9999 14.1386 14.209 15.8724 11.9998 15.8724ZM18.4056 7.19293C19.2008 7.19293 19.8455 6.56879 19.8455 5.79895C19.8455 5.02892 19.2008 4.40478 18.4056 4.40478C17.6102 4.40478 16.9654 5.02892 16.9654 5.79895C16.9654 6.56879 17.6102 7.19293 18.4056 7.19293Z" fill="black"/>
</svg>
