<svg width="34" height="19" viewBox="0 0 34 19" fill="none" xmlns="http://www.w3.org/2000/svg">
<path d="M7.424 15.3874C8.024 15.3874 8.528 15.3154 8.936 15.1714C9.344 15.0274 9.668 14.8354 9.908 14.5954C10.156 14.3554 10.332 14.0754 10.436 13.7554C10.548 13.4354 10.604 13.0954 10.604 12.7354C10.604 12.3594 10.544 12.0234 10.424 11.7274C10.304 11.4234 10.116 11.1674 9.86 10.9594C9.604 10.7434 9.272 10.5794 8.864 10.4674C8.464 10.3554 7.98 10.2994 7.412 10.2994H4.16V15.3874H7.424ZM4.16 3.05141V8.06741H6.728C7.832 8.06741 8.664 7.86741 9.224 7.46741C9.792 7.06741 10.076 6.43141 10.076 5.55941C10.076 4.65541 9.82 4.01141 9.308 3.62741C8.796 3.24341 7.996 3.05141 6.908 3.05141H4.16ZM6.908 0.555408C8.044 0.555408 9.016 0.663409 9.824 0.879409C10.632 1.09541 11.292 1.40341 11.804 1.80341C12.324 2.20341 12.704 2.68741 12.944 3.25541C13.184 3.82341 13.304 4.46341 13.304 5.17541C13.304 5.58341 13.244 5.97541 13.124 6.35141C13.004 6.71941 12.816 7.06741 12.56 7.39541C12.312 7.71541 11.992 8.00741 11.6 8.27141C11.216 8.53541 10.756 8.75941 10.22 8.94341C12.604 9.47941 13.796 10.7674 13.796 12.8074C13.796 13.5434 13.656 14.2234 13.376 14.8474C13.096 15.4714 12.688 16.0114 12.152 16.4674C11.616 16.9154 10.956 17.2674 10.172 17.5234C9.388 17.7794 8.492 17.9074 7.484 17.9074H0.932V0.555408H6.908ZM21.5448 5.40341C22.4568 5.40341 23.2848 5.55141 24.0288 5.84741C24.7808 6.14341 25.4208 6.56341 25.9488 7.10741C26.4848 7.65141 26.8968 8.31541 27.1848 9.09941C27.4728 9.88341 27.6168 10.7594 27.6168 11.7274C27.6168 12.7034 27.4728 13.5834 27.1848 14.3674C26.8968 15.1514 26.4848 15.8194 25.9488 16.3714C25.4208 16.9234 24.7808 17.3474 24.0288 17.6434C23.2848 17.9394 22.4568 18.0874 21.5448 18.0874C20.6248 18.0874 19.7888 17.9394 19.0368 17.6434C18.2848 17.3474 17.6408 16.9234 17.1048 16.3714C16.5768 15.8194 16.1648 15.1514 15.8688 14.3674C15.5808 13.5834 15.4368 12.7034 15.4368 11.7274C15.4368 10.7594 15.5808 9.88341 15.8688 9.09941C16.1648 8.31541 16.5768 7.65141 17.1048 7.10741C17.6408 6.56341 18.2848 6.14341 19.0368 5.84741C19.7888 5.55141 20.6248 5.40341 21.5448 5.40341ZM21.5448 15.8074C22.5688 15.8074 23.3248 15.4634 23.8128 14.7754C24.3088 14.0874 24.5568 13.0794 24.5568 11.7514C24.5568 10.4234 24.3088 9.41141 23.8128 8.71541C23.3248 8.01941 22.5688 7.67141 21.5448 7.67141C20.5048 7.67141 19.7328 8.02341 19.2288 8.72741C18.7328 9.42341 18.4848 10.4314 18.4848 11.7514C18.4848 13.0714 18.7328 14.0794 19.2288 14.7754C19.7328 15.4634 20.5048 15.8074 21.5448 15.8074ZM29.4461 16.2754C29.4461 16.0274 29.4901 15.7914 29.5781 15.5674C29.6741 15.3434 29.8021 15.1514 29.9621 14.9914C30.1221 14.8314 30.3141 14.7034 30.5381 14.6074C30.7621 14.5114 31.0021 14.4634 31.2581 14.4634C31.5141 14.4634 31.7501 14.5114 31.9661 14.6074C32.1901 14.7034 32.3821 14.8314 32.5421 14.9914C32.7101 15.1514 32.8421 15.3434 32.9381 15.5674C33.0341 15.7914 33.0821 16.0274 33.0821 16.2754C33.0821 16.5314 33.0341 16.7714 32.9381 16.9954C32.8421 17.2114 32.7101 17.3994 32.5421 17.5594C32.3821 17.7194 32.1901 17.8434 31.9661 17.9314C31.7501 18.0274 31.5141 18.0754 31.2581 18.0754C31.0021 18.0754 30.7621 18.0274 30.5381 17.9314C30.3141 17.8434 30.1221 17.7194 29.9621 17.5594C29.8021 17.3994 29.6741 17.2114 29.5781 16.9954C29.4901 16.7714 29.4461 16.5314 29.4461 16.2754Z" fill="#0075FF" fill-opacity="0.44"/>
</svg>
